<?xml version="1.0" encoding="UTF-8"?><svg id="Layer_3" xmlns="http://www.w3.org/2000/svg" xmlns:xlink="http://www.w3.org/1999/xlink" viewBox="0 0 256 256"><defs><style>.cls-1{stroke:#582cee;}.cls-1,.cls-2{fill:none;}.cls-1,.cls-3{stroke-miterlimit:10;}.cls-4{fill:#eee;}.cls-4,.cls-2,.cls-5,.cls-6{stroke-width:0px;}.cls-7{clip-path:url(#clippath);}.cls-8{letter-spacing:-.08em;}.cls-9,.cls-10,.cls-11,.cls-12,.cls-13{font-family:Comfortaa-Bold, Comfortaa;font-size:12.62px;font-weight:700;}.cls-9,.cls-5{fill:#582cee;}.cls-14{font-size:43.76px;}.cls-14,.cls-10,.cls-11,.cls-12,.cls-3,.cls-6,.cls-13{fill:#fff;}.cls-14,.cls-15{font-family:Silka-Medium, Silka;font-weight:500;}.cls-14,.cls-16{isolation:isolate;}.cls-17,.cls-10{letter-spacing:-.06em;}.cls-18,.cls-11{letter-spacing:-.06em;}.cls-12{letter-spacing:-.02em;}.cls-19{letter-spacing:-.1em;}.cls-15{fill:#302f35;font-size:31.38px;}.cls-20{letter-spacing:-.09em;}.cls-3{stroke:#6028f4;}</style><clipPath id="clippath"><rect class="cls-2" x="52.23" y="188" width="151.53" height="50.01"/></clipPath></defs><rect class="cls-4" x="0" width="256" height="256" rx="12" ry="12"/><path class="cls-5" d="M0,171h256v73c0,6.62-5.38,12-12,12H12C5.38,256,0,250.62,0,244v-73H0Z"/><g id="Logo"><g class="cls-7"><g id="Group_591"><path id="Path_12992" class="cls-6" d="M93.71,214.76c-20.07,4.94-33.33,7.3-41.48,7.39l.39,1.96c10.94,2.28,22.14,3.07,33.29,2.36,1.03-4.75,3.81-8.93,7.8-11.71"/><path id="Path_12993" class="cls-6" d="M64.61,197.76c0,6.39-1.7,13.71-6.19,22.58,2.98-.4,5.99-.91,9.03-1.6-.09-10.58-1.13-17.25-2.85-20.98"/><path id="Path_12994" class="cls-6" d="M64.33,189.8c3.04,6.85,5.03,15.84,5.27,28.48,8.58-1.62,9.43-1.98,14.15-3.17-2.46-7.98-7.81-16.61-19.41-25.31"/><g id="iSide" class="cls-16"><text class="cls-14" transform="translate(99.92 226.64)"><tspan x="0" y="0">iSide</tspan></text></g></g></g></g><g id="number-1"><circle class="cls-1" cx="72.25" cy="38.08" r="15.08"/><text class="cls-9" transform="translate(69.38 42.83)"><tspan x="0" y="0">1</tspan></text></g><circle class="cls-5" cx="109.42" cy="38.08" r="15.08"/><text class="cls-11" transform="translate(105.84 42.83)"><tspan x="0" y="0">2</tspan></text><circle class="cls-5" cx="146.58" cy="38.43" r="15.08"/><text class="cls-10" transform="translate(142.31 43.18)"><tspan x="0" y="0">3</tspan></text><circle class="cls-5" cx="183.75" cy="38.43" r="15.08"/><text class="cls-12" transform="translate(179.47 39.67)"><tspan x="0" y="0">...</tspan></text><rect class="cls-5" x="57.18" y="60.52" width="67.32" height="30.15" rx="15.08" ry="15.08"/><text class="cls-13" transform="translate(83.3 80.47)"><tspan class="cls-17" x="0" y="0">P</tspan><tspan class="cls-19" x="7.11" y="0">r</tspan><tspan class="cls-8" x="11.98" y="0">e</tspan><tspan class="cls-17" x="18.81" y="0">v</tspan></text><path class="cls-3" d="M68.12,74.8c-.36.36-.36.96,0,1.32l5.6,5.6c.36.36.96.36,1.32,0,.36-.36.36-.96,0-1.32l-4.94-4.94,4.94-4.94c.36-.36.36-.96,0-1.32s-.96-.36-1.32,0l-5.6,5.6h0Z"/><rect class="cls-5" x="131.51" y="60.52" width="67.32" height="30.15" rx="15.08" ry="15.08" transform="translate(330.33 151.19) rotate(-180)"/><text class="cls-13" transform="translate(144.46 80.42)"><tspan class="cls-18" x="0" y="0">N</tspan><tspan class="cls-20" x="9.72" y="0">e</tspan><tspan class="cls-17" x="16.42" y="0">xt</tspan></text><path class="cls-3" d="M187.88,76.38c.36-.36.36-.96,0-1.32l-5.6-5.6c-.36-.36-.96-.36-1.32,0-.36.36-.36.96,0,1.32l4.94,4.94-4.94,4.94c-.36.36-.36.96,0,1.32s.96.36,1.32,0l5.6-5.6h0Z"/><text class="cls-15" transform="translate(48.71 132.99)"><tspan x="0" y="0">MySQL Fix</tspan></text></svg>